<?xml version="1.0" encoding="UTF-8" standalone="no"?>
<!-- Created with Inkscape (http://www.inkscape.org/) -->

<svg
   xmlns:dc="http://purl.org/dc/elements/1.1/"
   xmlns:cc="http://creativecommons.org/ns#"
   xmlns:rdf="http://www.w3.org/1999/02/22-rdf-syntax-ns#"
   xmlns:svg="http://www.w3.org/2000/svg"
   xmlns="http://www.w3.org/2000/svg"
   xmlns:sodipodi="http://sodipodi.sourceforge.net/DTD/sodipodi-0.dtd"
   xmlns:inkscape="http://www.inkscape.org/namespaces/inkscape"
   width="210mm"
   height="297mm"
   viewBox="0 0 210 297"
   version="1.1"
   id="svg8"
   inkscape:version="0.92.5 (2060ec1f9f, 2020-04-08)"
   sodipodi:docname="visual.svg">
  <defs
     id="defs2" />
  <sodipodi:namedview
     id="base"
     pagecolor="#ffffff"
     bordercolor="#666666"
     borderopacity="1.0"
     inkscape:pageopacity="0.0"
     inkscape:pageshadow="2"
     inkscape:zoom="1.4"
     inkscape:cx="371.48674"
     inkscape:cy="827.47013"
     inkscape:document-units="mm"
     inkscape:current-layer="layer1"
     showgrid="false"
     inkscape:window-width="1848"
     inkscape:window-height="1016"
     inkscape:window-x="72"
     inkscape:window-y="27"
     inkscape:window-maximized="1" />
  <metadata
     id="metadata5">
    <rdf:RDF>
      <cc:Work
         rdf:about="">
        <dc:format>image/svg+xml</dc:format>
        <dc:type
           rdf:resource="http://purl.org/dc/dcmitype/StillImage" />
        <dc:title></dc:title>
      </cc:Work>
    </rdf:RDF>
  </metadata>
  <g
     inkscape:label="Capa 1"
     inkscape:groupmode="layer"
     id="layer1">
    <path
       style="fill:none;stroke:#000000;stroke-width:0.26458332px;stroke-linecap:butt;stroke-linejoin:miter;stroke-opacity:1"
       d="m 70.130236,14.072276 c 1.37101,2.931434 3.101615,3.151624 3.101615,9.243726 0,3.690708 0.188807,8.34912 0.801807,12.02713 0.5716,3.429604 1.323686,6.363822 2.138156,9.621703 3.078757,12.315026 11.612731,4.450429 14.165286,-3.207234 1.726382,-5.179148 2.672694,-12.452139 2.672694,-18.174327 0,-2.318946 1.460255,-7.35617 2.454064,-9.343783"
       id="path823"
       inkscape:connector-curvature="0"
       sodipodi:nodetypes="csssssc" />
    <text
       xml:space="preserve"
       style="font-style:normal;font-weight:normal;font-size:4.93888855px;line-height:1.25;font-family:sans-serif;letter-spacing:0px;word-spacing:0px;fill:#000000;fill-opacity:1;stroke:none;stroke-width:0.26458332"
       x="8.5526247"
       y="31.601358"
       id="text831"><tspan
         sodipodi:role="line"
         id="tspan829"
         x="8.5526247"
         y="31.601358"
         style="stroke-width:0.26458332">MUBs exist</tspan></text>
    <text
       xml:space="preserve"
       style="font-style:normal;font-weight:normal;font-size:4.93888855px;line-height:1.25;font-family:sans-serif;letter-spacing:0px;word-spacing:0px;fill:#000000;fill-opacity:1;stroke:none;stroke-width:0.26458332"
       x="11.759859"
       y="82.382568"
       id="text835"><tspan
         sodipodi:role="line"
         id="tspan833"
         x="11.759859"
         y="82.382568"
         style="stroke-width:0.26458332">no MUBs</tspan></text>
    <path
       style="fill:none;stroke:#000000;stroke-width:0.26458332px;stroke-linecap:butt;stroke-linejoin:miter;stroke-opacity:1"
       d="m 95.463858,14.239491 c 1.37101,2.931434 3.101615,3.151624 3.101615,9.243726 0,3.690707 0.188807,8.349119 0.801807,12.02713 0.5716,3.429604 1.32369,6.363821 2.13816,9.621702 3.07875,12.315025 11.61272,4.450429 14.16528,-3.207235 1.72638,-5.179147 2.67269,-12.452138 2.67269,-18.174325 0,-2.318946 1.46026,-7.35617 2.45407,-9.343783"
       id="path823-3"
       inkscape:connector-curvature="0"
       sodipodi:nodetypes="csssssc" />
    <path
       style="fill:none;stroke:#000000;stroke-width:0.26458332px;stroke-linecap:butt;stroke-linejoin:miter;stroke-opacity:1"
       d="m 120.79748,14.406706 c 1.37101,2.931434 3.10161,3.151624 3.10161,9.243727 0,3.690706 0.18881,8.349118 0.80181,12.02713 0.5716,3.429604 1.32369,6.363821 2.13816,9.621702 3.07875,12.315025 11.61272,4.450429 14.16528,-3.207235 1.72638,-5.179147 2.67269,-12.452139 2.67269,-18.174325 0,-2.318947 1.46026,-7.356171 2.45407,-9.343784"
       id="path823-3-6"
       inkscape:connector-curvature="0"
       sodipodi:nodetypes="csssssc" />
    <path
       style="fill:none;stroke:#000000;stroke-width:0.33117211px;stroke-linecap:butt;stroke-linejoin:miter;stroke-opacity:1"
       d="m 73.396524,60.83367 c 2.147945,2.931434 4.859263,3.151624 4.859263,9.243727 0,3.690707 0.295802,8.349119 1.256182,12.02713 0.895519,3.429604 2.962057,8.064714 5.570464,10.566642"
       id="path823-7"
       inkscape:connector-curvature="0"
       sodipodi:nodetypes="cssc" />
    <path
       style="fill:none;stroke:#000000;stroke-width:0.33117211px;stroke-linecap:butt;stroke-linejoin:miter;stroke-opacity:1"
       d="m 96.768341,60.833674 c -2.147943,2.931434 -4.859262,3.151624 -4.859262,9.243727 0,3.690707 -0.295801,8.349119 -1.256181,12.02713 -0.895519,3.429604 -2.962057,8.064708 -5.570465,10.566638"
       id="path823-7-5"
       inkscape:connector-curvature="0"
       sodipodi:nodetypes="cssc" />
    <path
       style="fill:none;stroke:#000000;stroke-width:0.33117211px;stroke-linecap:butt;stroke-linejoin:miter;stroke-opacity:1"
       d="m 96.768341,60.833674 c 2.14795,2.931434 4.859269,3.151624 4.859269,9.243727 0,3.690707 0.2958,8.349119 1.25618,12.02713 0.89552,3.429604 2.96205,8.064713 5.57046,10.566646"
       id="path823-7-6"
       inkscape:connector-curvature="0"
       sodipodi:nodetypes="cssc" />
    <path
       style="fill:none;stroke:#000000;stroke-width:0.33117211px;stroke-linecap:butt;stroke-linejoin:miter;stroke-opacity:1"
       d="m 120.14016,60.833678 c -2.14794,2.931434 -4.85927,3.151624 -4.85927,9.243727 0,3.690707 -0.29579,8.349119 -1.25617,12.02713 -0.89552,3.429604 -2.96206,8.064709 -5.57047,10.566642"
       id="path823-7-5-2"
       inkscape:connector-curvature="0"
       sodipodi:nodetypes="cssc" />
    <path
       style="fill:none;stroke:#000000;stroke-width:0.33117211px;stroke-linecap:butt;stroke-linejoin:miter;stroke-opacity:1"
       d="m 120.14016,60.833678 c 2.14795,2.931434 4.85927,3.151624 4.85927,9.243727 0,3.690706 0.29579,8.349118 1.25617,12.027129 0.89552,3.429604 2.96206,8.064713 5.57047,10.566642"
       id="path823-7-9"
       inkscape:connector-curvature="0"
       sodipodi:nodetypes="cssc" />
    <path
       style="fill:none;stroke:#000000;stroke-width:0.33117211px;stroke-linecap:butt;stroke-linejoin:miter;stroke-opacity:1"
       d="m 143.51198,60.833682 c -2.14794,2.931434 -4.85925,3.151624 -4.85925,9.243727 0,3.690706 -0.29581,8.349118 -1.25619,12.027129 -0.89552,3.429604 -2.96206,8.064709 -5.57047,10.566638"
       id="path823-7-5-1"
       inkscape:connector-curvature="0"
       sodipodi:nodetypes="cssc" />
  </g>
</svg>
